<svg height="512" viewBox="0 0 128 128" width="512" xmlns="http://www.w3.org/2000/svg" xmlns:xlink="http://www.w3.org/1999/xlink"><linearGradient id="a" gradientUnits="userSpaceOnUse" x1="99.655" x2="28.367" y1="108.469" y2="37.18"><stop offset="0" stop-color="#7b49ad"/><stop offset="1" stop-color="#6aa8fb"/></linearGradient><path d="m95.322 41.965a1.75 1.75 0 0 1 2.991-1.817q.735 1.209 1.427 2.456a1.75 1.75 0 0 1 -3.061 1.7q-.658-1.188-1.357-2.339zm14 36.767c0 27.043-17.792 44.518-45.327 44.518-20.326 0-36.149-9.941-42.328-26.594a1.75 1.75 0 1 1 3.281-1.217c5.738 15.45 19.97 24.311 39.052 24.311 20.221 0 41.827-10.775 41.827-41.018a65.064 65.064 0 0 0 -.49-7.792l-8.776-4.235-3.521 2.6a1.738 1.738 0 0 1 -1.388.307l-4.069-.824v13.5a1.749 1.749 0 0 1 -1.75 1.75h-43.666a1.749 1.749 0 0 1 -1.75-1.75v-13.488l-4.067.819a1.8 1.8 0 0 1 -1.39-.31l-3.53-2.609-8.78 4.24a64.124 64.124 0 0 0 -.48 7.79 53.731 53.731 0 0 0 .63 8.37 1.755 1.755 0 0 1 -1.45 2.01c-.1.01-.19.02-.28.02a1.748 1.748 0 0 1 -1.72-1.48 57.2 57.2 0 0 1 -.68-8.92 66.484 66.484 0 0 1 .62-8.96.17.17 0 0 1 .01-.07l.03-.27c3.31-23.76 18.71-47.91 38.65-52.06a7.746 7.746 0 1 1 12.04.01c8.92 1.86 17.47 7.83 24.57 17.26a1.753 1.753 0 0 1 -2.8 2.11c-8-10.64-17.87-16.5-27.79-16.5-20.12 0-36.39 22.94-40.7 46.48l7.56-3.64a1.768 1.768 0 0 1 1.8.17l3.75 2.77 4.007-.809v-18.177a1.749 1.749 0 0 1 1.75-1.75h6.958a1.75 1.75 0 0 1 0 3.5h-5.208v17.806.039s0 .013 0 .02v13.88h40.166v-31.745h-26.208a1.75 1.75 0 0 1 0-3.5h27.958a1.749 1.749 0 0 1 1.75 1.75v18.176l4 .811 3.745-2.768a1.754 1.754 0 0 1 1.8-.169l7.559 3.648a74.451 74.451 0 0 0 -5.122-16.619 1.75 1.75 0 0 1 3.2-1.414 77.354 77.354 0 0 1 5.879 20.644 1.727 1.727 0 0 1 .053.387 68.882 68.882 0 0 1 .63 8.992zm-45.322-61.982a4.25 4.25 0 1 0 -4.25-4.25 4.259 4.259 0 0 0 4.25 4.25zm35.667 77.191a1.747 1.747 0 0 0 1.668-1.225 46.651 46.651 0 0 0 1.992-13.984 1.75 1.75 0 0 0 -3.5 0 43.212 43.212 0 0 1 -1.827 12.935 1.748 1.748 0 0 0 1.144 2.193 1.721 1.721 0 0 0 .523.081zm-51.047 10.639a4.75 4.75 0 1 1 4.76-4.75 4.752 4.752 0 0 1 -4.76 4.75zm0-3.5a1.25 1.25 0 1 0 -1.24-1.25 1.259 1.259 0 0 0 1.24 1.25zm15.38 8.92a4.75 4.75 0 1 1 4.75-4.75 4.754 4.754 0 0 1 -4.75 4.75zm0-3.5a1.25 1.25 0 1 0 -1.25-1.25 1.25 1.25 0 0 0 1.25 1.25zm15.38-1.92a4.75 4.75 0 1 1 4.74-4.75 4.763 4.763 0 0 1 -4.74 4.75zm0-3.5a1.25 1.25 0 1 0 -1.26-1.25 1.248 1.248 0 0 0 1.26 1.25z" fill="url(#a)"/></svg>