<?xml version="1.0" standalone="no"?>
<!DOCTYPE svg PUBLIC "-//W3C//DTD SVG 20010904//EN"
 "http://www.w3.org/TR/2001/REC-SVG-20010904/DTD/svg10.dtd">
<svg version="1.0" xmlns="http://www.w3.org/2000/svg"
 width="983.000000pt" height="983.000000pt" viewBox="0 0 983.000000 983.000000"
 preserveAspectRatio="xMidYMid meet">

<g transform="translate(0.000000,983.000000) scale(0.100000,-0.100000)"
fill="#000000" stroke="none">
<path d="M4800 7676 c-143 -40 -242 -137 -295 -288 l-20 -59 -102 -34 c-511
-171 -962 -604 -1279 -1230 -199 -393 -325 -817 -376 -1270 -18 -161 -15 -513
6 -664 77 -567 316 -1053 697 -1416 302 -287 670 -471 1104 -551 120 -22 496
-30 636 -15 725 83 1341 516 1672 1177 170 340 250 663 264 1064 14 430 -65
889 -229 1330 -62 167 -215 480 -303 620 -304 481 -696 812 -1132 956 l-111
37 -12 46 c-35 138 -159 260 -305 300 -52 14 -158 13 -215 -3z m237 -154 c87
-45 145 -130 159 -232 4 -27 14 -56 23 -63 9 -8 59 -27 111 -42 185 -52 380
-150 547 -273 116 -87 340 -312 434 -437 301 -400 517 -910 608 -1435 18 -103
27 -164 46 -337 l6 -53 -195 0 -194 0 -90 163 c-49 89 -115 208 -147 264 l-57
102 111 334 c125 374 123 357 48 413 -23 18 -185 140 -361 273 -213 161 -326
241 -343 241 -13 0 -155 -57 -314 -126 l-290 -127 -442 92 c-243 50 -455 91
-472 91 -24 0 -47 -17 -120 -90 l-90 -90 -130 31 c-325 75 -337 78 -361 68
-46 -17 -46 -39 -5 -355 l39 -297 -209 -351 c-122 -206 -209 -362 -209 -377 0
-14 34 -70 86 -139 l84 -115 -81 -5 c-70 -4 -83 -8 -100 -29 -26 -31 -24 -57
6 -86 23 -24 29 -25 153 -25 l130 0 62 -85 62 -86 -61 -190 c-34 -104 -61
-201 -61 -214 0 -36 288 -531 316 -544 25 -11 81 4 487 129 l158 49 232 -86
c128 -47 245 -89 261 -94 23 -7 67 6 233 65 l205 74 422 -69 c231 -39 438 -70
458 -71 24 -2 44 4 57 16 20 18 21 29 21 265 l0 246 163 297 162 297 189 1
189 0 -6 -152 c-28 -685 -340 -1309 -843 -1686 -268 -202 -578 -329 -920 -378
-144 -21 -418 -23 -554 -5 -444 59 -823 240 -1134 540 -403 391 -632 923 -662
1544 l-7 137 77 0 c68 0 80 3 101 25 32 31 32 59 0 90 -21 22 -33 25 -96 25
l-72 0 7 87 c25 322 126 721 268 1058 293 696 785 1208 1319 1374 57 18 116
37 130 43 31 11 49 45 49 91 0 81 93 198 183 231 59 22 169 16 224 -12z m730
-1255 c15 -13 105 -81 198 -152 166 -125 375 -284 385 -292 2 -2 -45 -151
-104 -331 l-109 -327 155 -280 c85 -154 160 -289 166 -301 9 -18 0 -41 -70
-165 -44 -79 -120 -217 -169 -306 l-89 -162 0 -206 c0 -176 -2 -205 -15 -205
-8 0 -195 29 -416 66 l-401 65 -200 -72 -199 -71 -249 91 c-136 50 -256 91
-266 91 -11 0 -146 -39 -302 -86 -156 -48 -284 -85 -286 -83 -2 2 -56 95 -120
205 l-117 202 15 38 c8 22 38 113 66 203 44 137 50 167 41 188 -6 13 -96 140
-199 280 -103 141 -186 260 -185 264 2 4 44 77 94 161 50 84 141 236 201 338
l110 185 -34 263 c-29 226 -31 262 -18 262 8 -1 98 -20 200 -44 138 -32 191
-41 210 -34 14 5 63 47 110 93 l85 83 425 -88 c234 -49 441 -89 460 -90 23 0
128 40 310 120 151 66 278 120 282 120 3 0 19 -10 35 -23z"/>
<path d="M4830 7431 c-19 -10 -48 -35 -64 -55 -42 -51 -48 -142 -14 -201 108
-185 389 -68 337 140 -27 108 -162 168 -259 116z m114 -137 c20 -20 20 -33 -1
-56 -29 -32 -73 -16 -73 27 0 42 44 59 74 29z"/>
<path d="M3092 3970 c-42 -17 -47 -51 -22 -139 26 -91 48 -121 90 -121 31 0
70 33 70 59 0 28 -50 178 -62 188 -21 17 -52 22 -76 13z"/>
<path d="M3245 3568 c-62 -35 -45 -91 88 -288 61 -90 115 -159 176 -222 36
-38 52 -48 77 -48 42 0 64 23 64 66 0 27 -10 45 -43 82 -97 106 -202 254 -256
359 -30 59 -63 75 -106 51z"/>
<path d="M4040 3259 c-55 -25 -105 -71 -133 -124 -31 -57 -30 -173 0 -231 51
-97 128 -143 236 -144 119 0 219 71 251 181 20 65 20 92 1 155 -43 146 -217
226 -355 163z m178 -144 c60 -51 66 -128 14 -178 -54 -52 -124 -52 -175 -1
-51 50 -47 124 9 174 46 40 108 42 152 5z"/>
<path d="M5559 3266 c-53 -19 -107 -63 -136 -114 -36 -62 -44 -170 -16 -233
46 -103 131 -159 242 -159 155 1 261 107 261 261 0 151 -111 260 -265 259 -27
-1 -66 -7 -86 -14z m162 -149 c85 -57 62 -187 -38 -216 -42 -12 -76 -4 -112
27 -82 70 -32 212 74 212 27 0 54 -8 76 -23z"/>
<path d="M4835 3041 c-74 -18 -145 -77 -176 -146 -23 -49 -25 -161 -5 -210 37
-87 121 -151 214 -162 104 -12 215 47 265 141 17 32 22 58 22 121 0 69 -4 86
-27 126 -63 107 -177 158 -293 130z m126 -154 c45 -30 61 -63 56 -116 -9 -87
-100 -135 -177 -93 -35 19 -69 70 -70 107 0 35 34 88 70 107 46 24 80 23 121
-5z"/>
<path d="M3897 5852 c-15 -16 -17 -107 -17 -1018 l-1 -999 22 -17 c20 -17 83
-18 1011 -18 l989 0 24 25 25 24 0 988 c0 879 -2 991 -16 1011 l-15 22 -1003
0 c-954 0 -1004 -1 -1019 -18z m1913 -1012 l0 -900 -900 0 -900 0 0 893 c0
492 3 897 7 900 3 4 408 7 900 7 l893 0 0 -900z"/>
</g>
</svg>
